<?xml version="1.0" encoding="UTF-8"?>
<svg width="300mm" height="300mm" version="1.1" viewBox="0 0 300 300" xmlns="http://www.w3.org/2000/svg">
 <path d="m193.85 1.2011c-15.027 2.8278-31.008 4.6362-43.409 14.432-14.818 8.4805-27.873 22.618-29.224 40.357-4.0542 14.925 2.5619 29.38 9.2005 41.882-8.7625 6.0648-12.231 14.463-11.661 25.392 0.31984 8.1527-8.0881 20.797-1.8934 26.328 5.6261-11.989 4.2063-26.121 8.2346-38.625 4.0561-11.328 29.243 0.27207 22.102 9.8566-5.8554 11.347-7.3421 32.545-25.025 31.352-15.396 1.5611-28.903 10.096-43.62 14.177-10.681 2.6134-11.614 14.135-0.68015 15.653 0.66788 12.084 14.369 2.7164 22.119 5.9152 10.272-6.6447 12.572 5.0383 6.9044 12.159-2.1968 10.265-13.825 28.393-0.81238 34.263 14.43-2.0331-1.3433 15.328-1.828 22.535-3.2565 9.5875 2.0307 6.9923 3.0702-0.5406 5.0817-6.8762-5.2167 11.408 3.0548 5.6979 1.1524-4.7632-1.5766-19.677 6.3548-26.853 2.8439-5.8127 2.1004-11.098 8.1526-4.2413 8.2857 7.4647 34.325-1.6054 25.73 15.563-4.9233 10.982-23.658 11.991-16.357 27.333 6.6269 11.893-7.3286 27.59-17.107 14.21-4.9366-2.6656-9.7908-21.075-14.569-14.852 1.5939 13.185 14.36 24.418 27.513 24.735 15.293-3.8111 4.2489-27.957 21.678-31.806 16.581-1.725 28.281-15.446 28.581-32.108 0.49832-12.196-6.7888-26.489 4.218-36.57 8.4829-15.465 16.615-31.423 21.45-48.417 3.4656-14.275-0.57039-28.752-2.7666-42.759 4.5653-7.931 15.144-11.732 18.356-21.319 7.2649-14.326 6.1574-31.161 4.3676-46.601-4.2973-11.582-10.107-23.194-20.014-30.729-3.9166-2.367-8.1896-4.0699-12.118-6.4166zm-9.9263 2.3146c1.7092 0.32513-1.131 0.68653 0 0zm16.9 1.7081c2.1263 0.13779-1.7983 1.1545 0 0zm-11.617 0.035555c2.223-1.1658 0.0446 1.276 0 0zm-1.9704 0.046322c1.3468 0.62289-1.1742 0.72082 0 0zm10.218 5.389e-4c1.1316 0.81527-1.3467 0.61554 0 0zm-20.547 0.036086c1.115 1.0566-1.6129 0.16303 0 0zm5.3176 1.3956c1.8693 0.99374-1.9147 1.0698 0 0zm13.512 0.30434c18.052 6.2341 23.169 27.163 25.478 44.019 2.1237 16.686-0.0838 37.879-16.214 47.03-7.175 3.7278-18.879 19.351-23.009 15.32-3.1775-13.751-22.777-17.062-22.602-33.294-5.159-15.771-4.5924-35.635 8.852-47.247 7.1896-9.2439 15.94-15.986 25.894-21.622 0.94035-1.2008 1.4718-2.694 1.6008-4.2069zm12.15 1.0277c-2.2313 1.582 3.6454-0.18049 0 0zm-39.148 0.57743c1.8477 0.66161-1.3691 0.80138 0 0zm35.486 0.12389c1.0727 0.94882-1.4626 0.8295 0 0zm-32.247 0.21546c1.2489 0.74661-1.5391 0.5789 0 0zm37.957 0.84461c-3.6752-0.073158 2.403 1.4333 0 0zm-39.36 0.12874c1.4381 2.0252-3.1644 0.018036 0 0zm-10.24 0.38406c0.67875 1.2099-1.702 0.07361 0 0zm8.2823 0.14274c1.3276 0.94734-1.3276 0.94639 0 0zm25.241 0.36952c2.3374-0.06716-0.76967 1.6646 0 0zm17.272 1.8066c0.64033 1.6722-2.0974-0.36388 0 0zm-2.0786 0.0059c1.8599-0.2016-1.0628 1.027 0 0zm5.6726 0.71048c-1.55 1.7452 2.6108 0.67928 0 0zm-54.701 0.51926c1.7491 0.56321-0.97446 1.1737 0 0zm18.921 0.19661c0.51596 1.3313-1.6219-0.45076 0 0zm32.163 0.1853c1.1185 1.7138-2.2207-0.3416 0 0zm-52.516 1.4097c0.86109 1.1117-1.6734 0.03944 0 0zm-1.5319 0.0571c0.90157 1.3348-1.9527 0.11961 0 0zm55.524 0.25263c1.4535 1.0033-1.788 0.96627 0 0zm2.4067 0.59575c-2.3401 0.49594 2.1061 1.9226 0 0zm-64.639 1.0294c0.68956 1.3273-1.6419 0.15592 0 0zm3.0213 0.06571c-0.62957 3.7933-4.5368 1.2312 0 0zm59.287 0.14705c1.2069 0.59103-1.2068 0.59253 0 0zm-62.627 1.5163c3.1449-1.0699-1.2675 1.8764 0 0zm-2.021 0.10181c1.5396 0.1634-0.91989 0.9217 0 0zm66.744 0.19984c0.52591 1.6889-2.2219 0.20806 0 0zm-14.732 0.39214c2.4514 9.5937 10.407 24.865 10.625 30.287 5.3513-9.8288-1.8981-24.667-10.625-30.287zm4.9184 0.2968c-0.92832 0.80497 1.4769 0.20797 0 0zm13.088 0.10235c-0.82506 1.6104 2.2026 0.52891 0 0zm-68.198 0.49448c-7.6029 4.3801-17.201 21.949-21.063 20.777 3.9346-9.3886 12.304-16.089 21.063-20.777zm64.594 0.02585c1.5239 1.2404-2.0256 0.99144 0 0zm2.118 0.28387c0.30755 1.5635-1.9574-0.43783 0 0zm1.8853 0.9254c-2.8253-0.10267 1.5722 1.1178 0 0zm-70.046 0.44169c0.85323 1.4153-1.9698 0.08575 0 0zm67.704 0.44546c1.5033 0.35988-1.2214 0.74602 0 0zm3.693 0.60006c-1.2133 0.80854 1.3429 1.2244 0 0zm-72.998 0.5198c0.45973 1.4877-1.9117-0.28864 0 0zm70.773 0.04902c2.798 0.80961-2.1354 2.2757 0 0zm-76.276 0.31619c1.6747 0.48695-1.3357 0.8516 0 0zm76.309 1.7474c1.7226 1.0877-1.8772 1.1549 0 0zm-82.797 1.8497c0.99709 0.86324-1.2746 0.23265 0 0zm-1.4425 1.5088c1.2093 0.62346-1.2128 0.59939 0 0zm76.293 1.1059c-2.5216 0.4124 1.726 1.196 0 0zm-46.069 1.115c1.8068 1.17-1.9708 0.7032 0 0zm-24.986 0.89039c1.2365 2.0206-2.1996 0.87388 0 0zm23.654 0.76542c0.34859 1.8621-2.2803-0.62814 0 0zm2.0469 3.7145c-1.7253 1.6791 1.1992 1.4401 0 0zm-36.263 3.1872c1.5602 1.1928-2.1375 0.51031 0 0zm34.155 0.85861c-0.9026 0.96571 1.3143 0.1679 0 0zm50.66 0.53704c-0.93366 0.81709 1.439 0.44463 0 0zm-84.687 0.17937c1.4592 1.1423-2.1334 0.43262 0 0zm11.731 0c1.3798 1.0739-1.7659 0.80702 0 0zm73.206 1.0218c-2.2468 1.0143 1.9721 1.35 0 0zm-86.753 0.6453c1.3359 0.57618-0.92669 0.92535 0 0zm0.15136 2.2715c1.015 1.3762-1.9779 0.049 0 0zm-0.35337 1.3289c0.98878 0.90222-1.106 0.78153 0 0zm-1.2911 2.3485c1.2264 0.75918-1.4294 0.53112 0 0zm85.94 0.11096c1.4757-0.02081-1.029 1.0546 0 0zm2.501 0.01347c-1.2106 0.86642 1.8 0.66294 0 0zm-56.439 1.219c0.89549 1.0697-1.5489-0.14729 0 0zm-25.376 0.17129c1.4325 0.87383-1.7012 0.63 0 0zm80.045 0.90009c-1.5582-0.48896 0.0393 1.264 0 0zm-80.382 0.77297c1.737-0.19941-0.86198 1.4023 0 0zm7.051 0.11743c1.5887 0.74888-1.007 1.0365 0 0zm-15.076 1.2879c1.2129 1.6092-2.2062 0.26501 0 0zm11.675 0.32319c1.1041 0.79619-1.3689 0.58603 0 0zm29.233 2.7671c-2.5858-0.26765 1.2872 1.6257 0 0zm-41.018 0.63938c0.87754 0.89811-1.394 0.14823 0 0zm25.288 0.37652c1.5714 0.73005-1.2692 0.89361 0 0zm15.749 0.50957c-0.68842 1.2243 1.8306 0.88414 0 0zm-30.958 0.90116c2.3523 1.7525-2.9255 0.75077 0 0zm1.638 0.04525c1.2344 0.42812-1.0457 0.77365 0 0zm29.57 0.68732c-1.017 1.6959 1.95 0.42927 0 0zm-0.8753 0.40506c-0.50663 1.6094 1.9514 0.33514 0 0zm47.523 0.04094c-6.7242 4.3655-0.62587 18.926 1.3513 5.3957 0.33188-1.5852 1.3215-5.1802-1.3513-5.3957zm-78.366 0.70833c1.9546-1.2256-0.0719 2.1072 0 0zm-11.3 0.25909c1.3196 0.37924-1.3532 0.41214 0 0zm41.657 0.40722c-0.75119 1.3026 1.7858 0.28761 0 0zm1.1818 0.13089c-1.5092 1.3793 1.9496 1.0144 0 0zm1.156 0.23916c-0.26368 1.4414 1.6999-0.33506 0 0zm0.57851 0.83437c-7.9059 3.8909 1.6088 21.793 5.2897 18.121 0.0211-5.8765-3.5993-12.298-5.2897-18.121zm-3.1581 0.14328c-2.1912 1.3705 2.1953 1.7631 0 0zm-1.6316 0.41961c-1.6168 0.20342 1.1627 1.1891 0 0zm-28.243 0.87962c1.9429 0.31019-1.099 1.4026 0 0zm33.352 1.2443c3.427 0.13668-0.87423 2.0731 0 0zm-32.894 0.65877c1.3261 1.7077-2.22-5e-3 0 0zm77.741 2.0436c0.85812 0.95808-1.4063 0.1766 0 0zm-46.047 1.4506c1.6092 1.2284-1.4742 1.2026 0 0zm-32.055 0.1422c1.4989 0.52166-1.3077 0.53668 0 0zm35.149 1.3262c4.162 2.7492-2.555 2.2674 0 0zm-4.0399 1.0019c-0.30807 4.4969 2.2691 1.0361 0 0zm1.8982 0.81013c3.8956 1.4869-1.5898 4.4325 0 0zm-43.119 0.63992c1.7351 1.8251-1.6583 1.7962 0 0zm46.098 0.69809c1.1923 2.1028-2.9444 0.64122 0 0zm-34.269 0.7832c1.7212 0.90224-1.2496 0.93673 0 0zm24.075 0.82844c-1.6632 0.7653 1.929 0.89688 0 0zm9.8724 0.64584c1.7984 1.8198-2.6209 0.18406 0 0zm-10.131 1.2281c1.823 1.8972-2.232 0.66617 0 0zm11.846 0.29895c2.103 1.8045-3.4682-0.09547 0 0zm-1.8363 0.23324c3.4447-0.01463-2.1126 1.7516 0 0zm-33.648 0.09965c1.1241 0.81535-1.3734 0.3513 0 0zm31.479 0.44169c-2.6516-0.11434 3.5709 2.6299 0 0zm-0.23485 1.3633c-0.96028 1.3283 1.5676 0.13709 0 0zm2.969 0.40722c-2.6161 0.75372 2.795 2.3663 0 0zm50.875 0.11527c1.8922 0.96748-1.2178 2.244 0 0zm-95.695 0.83814c2.1522 0.50306-1.3652 1.1294 0 0zm48.249 2.5031c-1.0849 2.3834 1.5405 1.0152 0 0zm-10.527 0.06896c-0.62172 1.582 1.5741 0.87207 0 0zm9.3149 0.17129c-1.6113 0.41905 1.7086 0.59191 0 0zm-3.6811 0.08941c-1.6605 2.2709 3.8022 2.485 0 0zm5.372 1.5578c-2.9736 0.5346 2.3194 1.843 0 0zm-11.369 0.85861c1.6078 0.78817-1.6077 0.78819 0 0zm-3.199 0.01347c1.9216 0.86756-1.8797 1.142 0 0zm12.173 1.1425c-1.878 0.73398 1.474 1.1595 0 0zm-6.5592 0.27686c-1.0854 1.2975 1.4246 0.67879 0 0zm-4.0184 0.93402c1.5739 0.41914-1.0131 0.93 0 0zm-6.7972 1.3122c1.0225 0.69497-2.0099 0.24862 0 0zm7.0558 0.36844c0.87591 1.4335-2.2346-0.29912 0 0zm5.2529 0.32858c-1.8117 1.2472 1.8799 0.88209 0 0zm1.3477 4.6776c1.4219 0.97521-1.4804 0.57189 0 0zm1.8115 1.5098c1.6886 1.4733-2.2633 0.90205 0 0zm35.165 1.7905c1.8413 0.77827-1.1816 1.3257 0 0zm-3.6483 1.5416c-0.24185 1.4359 1.7012-0.64233 0 0zm-0.80259 0.0797c-0.65766 1.7218 1.7329 1.1086 0 0zm-39.6 0.53163c1.2134 0.51277-1.0718 0.61886 0 0zm6.9718 0.19662c1.5119 0.24186-0.87161 1.1982 0 0zm26.23 2.6916c-2.2754-0.0153 1.0198 0.96004 0 0zm-33.145 0.60868c1.7879 0.39534-1.2816 0.89828 0 0zm1.631 0.0889c1.8043-0.16986-0.87482 1.1943 0 0zm19.01 1.0875c-0.84981 1.259 2.067-0.28936 0 0zm7.9101 0.15783c-1.8842 0.2197 1.3733 0.81013 0 0zm2.3857 0.0373c-5.9543-0.91203 0.78285 1.8892 0 0zm-32.804 0.54135c1.6186-0.62101 0.10715 1.1762 0 0zm23.964 1.637c1.4315 0.52324-1.2817 1.0116 0 0zm-31.846 0.049c4.7699-0.98018 1.8767 2.3937 0 0zm-1.8944 0.0609c0.9684 1.2132-1.754 0.24689 0 0zm16.755 0.0652c0.74668 0.97755-1.4019 0.38349 0 0zm-4.8209 0.29302c0.19342 1.6347-2.423-0.68613 0 0zm26.043 0.18207-0.11916 0.71606zm-34.772 1.2502c1.3334 0.67582-1.3972 1.0699 0 0zm20.547 0.0312c1.8243 1.6013-2.0374 0.60883 0 0zm-10.792 0.0457c1.514 0.46436-0.91352 1.6832 0 0zm15.713 0.15835c2.288 1.2767-1.836 0.95721 0 0zm-1.5605 0.17722c0.48805 1.4578-1.9241-0.14835 0 0zm0.14006 0.70618-0.19675 0.74668zm1.8654 0.40937c2.3947 1.3128-3.2936 0.59457 0 0zm-15.619 0.32589c0.82396 1.256-1.5935 0.0896 0 0zm16.581 0.12011c2.2484 0.0168-1.4619 1.4875 0 0zm15.428 0.0345c2.5716 0.0902-1.2341 1.555 0 0zm-39.127 9e-3c1.136 0.82404-1.3511 0.61024 0 0zm37.565 0.0193c1.7044 0.89692-1.2465 0.93444 0 0zm-22.022 0.0921c6.6303-0.89873-0.52133 5.6862 0 0zm23.799 1.2793c1.2549 4.5058-4.388 3.1211 0 0zm1.3499 0.0679c3.4435 0.84108-2.3577 2.736 0 0zm-38.771 0.10504c2.3437 0.89097-2.0936 1.6305 0 0zm33.725 5e-3c2.5768-0.51555-0.87681 1.8202 0 0zm-32.358 8e-3c4.0579-1.6293 1.2914 2.7948 0 0zm34.326 0.17238c1.912 0.93238-1.2798 1.0475 0 0zm-17.071 0.0134c5.0841 1.38-3.114 4.8733 0 0zm-22.088 0.0221c1.9732-0.48689-0.47991 1.1183 0 0zm32.336 0.17075c1.5222 0.8095-1.4665 0.76531 0 0zm1.5686 7e-3c6.8366 3.8195-10.213 4.4548-0.0181 0.91233zm1.7485 0.10882-0.21638 0.71875zm-7.9882 0.65553c1.5933 2.0843-3.0841 1.6209 0 0zm-6.8958 0.09c2.4075 2.7277-2.4709 1.1912 0 0zm-3.387 0.0889c5.4165 0.72594-2.4794 2.3616 0 0zm-18.369 0.2634c15.383-0.20364 15.743 18.85 9.1618 28.527-4.3059 12.735-9.6388 25.826-19.855 35.016 3.6887 12.297 15.398-3.6285 15.764-10.658 6.4183-13.634 12.152-28.052 13.277-43.116 6.5-9.1492 28.168-11.235 29.139 3.6352 0.5384 12.995 0.74136 30.904-11.68 38.594-8.1491 5.8487-27.487-11.141-23.086 7.2407 3.8059 9.7126 5.9003 23.811-9.2409 22.77-4.624-1.86-22.695 6.5112-11.548 5.846 10.515-2.4234-7.0752 15.016-9.1717 4.7177 7.7286-9.9495-12.729-3.9206-8.4514-14.773-1.9218-8.3814 13.128-18.151 9.9678-21.623-11.766-0.0562-23.679 11.689-34.091 9.1554-0.87664-7.3958 0.29793-9.2626 1.1858-1.3943 1.5284-7.4053-5.05-11.617-3.1297-1.6272-0.045 11.249-13.537 1.1721-8.7827-6.1869-0.57468-9.0133 17.295-16.308 19.688-6.272-0.96085-5.6962 8.5818-11.998 7.6358-3.0275 5.085-10.995 22.828-7.7407 27.82-18.234 6.2878 2.2199 15.132-2.9541 4.5321-4.2768-12.563-2.4115 0.10803-17.638 0.86519-24.314zm6.0545 5e-3c1.7504 0.94196-1.7598 1.2604 0 0zm23.551 5.3e-4c2.2615 0.29207-1.7037 2.6085 0 0zm-24.861 0.063c1.9508 1.3257-1.8987 0.79363 0 0zm3.0455 0.11528c1.611 1.1656-1.9546 0.83814 0 0zm4.8942 0.0378c-1.7498 2.6667-5.408-1.6458 0 0zm13.975 0.0566c1.103 1.7655-2.4475 0.56383 0 0zm17.248 0.35606c0.42034 1.5319-2.3473-0.6221 0 0zm-13.348 1.164c1.0172 2.4315-2.8206 0.41638 0 0zm-20.802 0.0469c1.884 1.2748-1.762 0.98753 0 0zm2.8985 0.13088c3.5107 1.3509-2.1758 1.5524 0 0zm-1.8303 1e-3c4.5805 0.28917-2.2133 1.9463 0 0zm-13.259 0.0119c1.5211 0.17229-1.026 1.1132 0 0zm24.128 1e-3c1.518 1.1067-1.5725 0.79788 0 0zm6.2575 0.0119c1.8316 0.83029-1.234 1.9137 0 0zm-3.2018 5e-3c2.1302 1.1289-2.5262 1.9789 0 0zm-1.6014 0.0216c1.3587 1.8234-2.4589 0.45774 0 0zm3.1576 0.0259c1.5154 1.0352-1.6739 1.253 0 0zm-6.7353 0.0986c1.6021 1.7269-2.4987 0.8885 0 0zm-1.4484 0.0104c1.5407 1.6634-1.9016 0.40589 0 0zm-3.6709 0.0587c2.0964 0.1824-1.6505 1.3005 0 0zm20.826 0.10988c1.1891 1.5228-2.4479 0.19211 0 0zm6.7897 0.92002c-8.6014 12.816-10.58 28.942-19.868 41.376 12.079-2.369 12.614-21.902 19.501-31.254 1.0881-3.2303 1.5792-6.846 0.36761-10.121zm1.5389 0.37005c-0.54411 1.2238 1.8303-0.10258 0 0zm-30.73 0.1422c1.8312 1.0326-1.9031 0.67975 0 0zm6.5737 0.21062c1.9165 1.1828-1.5099 1.0859 0 0zm1.6564 0.14704c2.8769 0.15605-1.4682 1.8807 0 0zm3.7129 0.0916c0.67009 1.4642-1.7832-0.26201 0 0zm-30.44 6.7601c1.3533 0.60942-1.1362 0.82524 0 0zm50.178 28.418c1.2057 0.59063-1.2056 0.59216 0 0zm-75.138 2.0049c-4.5764 3.9035 3.285 6.8598 0 0zm-8.9034 1.0444c1.1917 2.2172-2.6335-0.29022 0 0zm6.4245 0.0889c1.8636 4.5236-1.6264 1.7544 0 0zm-28.652 5.1258c0.93066 1.4286-1.586 0.0625 0 0zm22.427 0.60383c-3.2828 0.42238 2.0653 2.8017 0 0zm-2.5398 1.2491c1.9303-0.11556-0.87189 1.3299 0 0zm-28.475 0.27202c1.0792 0.82224-1.4943 0.3144 0 0zm111.6 0.0211c0.60822 1.5296-1.7956-0.41869 0 0zm-72.146 0.41854-0.77308 2.3126zm-9.0025 8e-3c-2.8743 2.119 2.8875 0.076 0 0zm8.5441 0.33989c-3.0228-0.60893-0.19217 2.0418 0 0zm2.3992 0.22461c-1.5733 1.2654 2.2372 1.3992 0 0zm-46.1 0.1239c0.5714 2.3967-2.4685-0.1905 0 0zm11.003 0.0663c4.8383 4.5919-4.614 23.882-5.7587 14.538 0.91633-6.5838-18.675-4.3588-5.8236-11.542 3.6036-1.7993 7.6229-2.4968 11.582-2.996zm23.341 1.1193c-1.292 0.71141 1.2919 0.71015 0 0zm76.641 0.58283c1.135 1.4128-2.1699 0.77694 0 0zm1.4554 0.17452c1.8484 0.39473-1.3222 1.3934 0 0zm-4.7822 0.23432c1.2247 0.75907-1.4286 0.5304 0 0zm-16.954 0.26448c1.1066 0.87488-1.395 0.50191 0 0zm8.5328 0.22084c1.582 0.18976-0.96457 0.66525 0 0zm-73.609 0.15191c-1.3396 1.992 2.769 0.0753 0 0zm65.488 0.14328c5.1924 6.2254 28.062-1.8585 17.753 11.532-0.54436 9.2944-14.935 19.288-15.651 4.2904-2.1224-4.9464-3.3012-10.479-2.1013-15.822zm-96.529 0.92809c1.2859 1.1123-1.4221 0.55006 0 0zm116.2 0.16105c0.89856 0.63991-1.1007 0.44699 0 0zm-21.827 0.3609c1.1066 0.81879-1.3981 0.21845 0 0zm-26.433 1.254c-2.1317 1.1287 1.6703 1.689 0 0zm-47.929 0.19714c1.6581-0.27334-0.49361 1.1273 0 0zm77.006 1.2448-0.25083 0.73682zm-31.452 0.45463c1.2732 0.1594-0.87954 0.73518 0 0zm41.803 1.1726c-6.409-1.9353-11.067 9.8853-2.0598 4.0012 10.306 1.8287-5.233 14.669-3.1485 1.9419-4.4094 16.101 17.43 3.5952 8.017-4.0988l-1.3609-0.93261zm-87.115 0.3318c1.1061 0.81986-1.3991 0.2173 0 0zm54.902 0.18907c1.9111-0.89198 0.93665 1.5488 0 0zm24.986 0.58121c-1.2005 0.57361 1.2148 0.50631 0 0zm-79.828 0.70402c2.8003 2.1866-1.9385 1.0117 0 0zm-10.455 0.31564c1.9558 0.51891-1.3397 0.94042 0 0zm-10.098 0.19015c1.4649 0.29682-0.75561 0.96105 0 0zm75.898 0.11581c1.343 0.7092-1.3651 0.59123 0 0zm42.677 0.0792c0.87276 1.1735-1.3941 0.19759 0 0zm-21.335 0.87638c-2.2145 0.0172 1.4136 1.4437 0 0zm-76.552 0.0926c1.6034 2.0168-2.2205 0.81484 0 0zm-10.685 0.39052c1.8201 0.66962-1.3737 0.87813 0 0zm44.622 0.11366c0.29002 9.7322-1.0318 23.464-11.334 22.242-2.5707 5.9347-4.3725 14.975 3.141 12.289 7.4446 10.733-18.973 26.475-14.611 8.6486 4.7453-10.457 5.798-19.628 9.37-30.601-1.7089-10.287 5.1011-10.593 13.435-12.578zm20.895 0.11312c1.7572-0.27045 0.0371 1.6457 0 0zm21.013 1.5896c1.6327 1.9384-2.675 0.29592 0 0zm-25.117 0.035c3.0439-1.3118-0.15267 1.1441 0 0zm-50.402 0.035c-0.73913 1.2717 1.8755 2.1346 0 0zm93.622 0.30757c0.99034 0.96329-1.3398 0.74372 0 0zm1.9111 0.036c1.1822 0.59808-1.2867 0.54171 0 0zm-17.798 0.21815c-1.1224 1.0829 1.651 1.0894 0 0zm-4.9335 0.32427c-2.0128 1.2849 1.9652 0.69995 0 0zm-23.003 0.79451c0.27189 1.3266-1.6464-0.39222 0 0zm26.61 0.0599c5.6791 0.4162-2.5812 1.8727 0 0zm-1.1947 0.0243c0.92587 1.4187-2.1608-0.40111 0 0zm13.125 0.16591c0.74515 0.94508-1.4667 0.30436 0 0zm-15.874 0.23162c-1.7118 2.0787 1.6748 1.6058 0 0zm8.8075 0.65285c-1.0834 1.5834 3.3979-0.34638 0 0zm-7.3343 0.40991c3.2333-0.37406-0.29518 2.4805 0 0zm15.708 1.0477c-2.708 1.1051 1.1753 2.4437 0 0zm-2.7714 0.95665c1.6488 1.1022-1.3606 0.77997 0 0zm-86.045 0.17882c0.93989 1.385-1.6834 0.67349 0 0zm20.522 0.27795c0.29569 1.3062-1.4565-0.48478 0 0zm10.879 0.0259-0.14304 1.4773zm-39.283 0.3302c-1.7457-0.58021 0.2433 1.3236 0 0zm85.679 0.63129c1.1971 2.1699-2.5531 0.44964 0 0zm-2.1072 0.48694c1.32 0.79171-1.4914 0.92909 0 0zm18.94 0.0388c0.29761 1.1972-1.3324-0.0603 0 0zm-4.892 0.14975c0.84804 1.9605-2.269-0.4334 0 0zm-0.38621 1.6434c1.388 1.2432-1.5489 0.54854 0 0zm-70.755 0.38245c2.1836-0.99948 0.15131 1.7397 0 0zm1.9871 0.0409c-1.1103 0.87576 1.3547 1.0054 0 0zm58.355 1.0342c2.7405-0.11425-1.5509 2.3429 0 0zm8.661 0.24239c1.6645 1.3826-1.1668 1.1062 0 0zm1.7027 3e-3c1.2719 1.0325-1.6178 0.87096 0 0zm1.825 0.17722c1.079 0.99089-1.4029 0.78082 0 0zm1.8093 0.0373c0.85605 0.95432-1.3593 0.21571 0 0zm-11.808 0.87478c-0.93388 1.1305 1.5037-0.0334 0 0zm4.8231 0.4013c1.4262 1.6827-2.3657 0.1072 0 0zm-8.3717 0.11903c1.4604 0.99779-1.7491 1.0034 0 0zm1.0682 0.0194c2.5113 0.23608-1.245 1.8616 0 0zm-59.982 0.0619c0.70206 1.561-1.9627-0.35045 0 0zm69.551 0.18584c0.49779 2.1948-2.582-1.0029 0 0zm-9.2993 1.1947c2.2921 1.166-2.094 2.1395 0 0zm8.6793 0.085c-1.2895 4.0102-5.7261 1.8259 0 0zm-6.5452 0.16321c2.2946 1.1921-2.2552 0.89846 0 0zm2.69 0.0802c3.2477-0.15452-0.90708 1.7586 0 0zm7.1635 0.19015c1.4608 0.65229-1.2991 0.82914 0 0zm-1.4996 0.0119c1.1407 1.2042-1.8968 0.41881 0 0zm-11.232 0.69164c3.6889 11.127-28.525 13.672-15.94 3.6279 5.0955-2.1376 11.151-0.57639 15.94-3.6279zm2.0959 1.0757c1.9128-0.0998-0.69652 1.6693 0 0zm8.9395 0.17882c1.5053 0.44422-1.245 0.93972 0 0zm-25.304 0.0221c1.4053 0.30411-0.90811 0.90679 0 0zm-47.222 0.0807c2.5205 0.34851-1.2009 1.2652 0 0zm36.827 1.5653c2.1526-0.16431-1.2392 1.4114 0 0zm-30.065 0.12229c3.6929-0.23991-1.1164 1.6816 0 0zm33.737 1.617c1.5515 0.62093-1.5192 0.64972 0 0zm-1.6962 0.17344c3.1467 1.8063-2.2296 2.5004 0 0zm-14.333 0.76812c-2.3234 1.5896 2.1609 1.0276 0 0zm15.56 0.42823c2.056-0.70464-0.22588 1.7915 0 0zm-17.986 0.19338c1.3112 1.5664-2.5241-0.17928 0 0zm-1.7043 0.17721c14.256 13.138-23.334 9.9644-8.3172 1.3767 2.7596 0.2679 6.4459 1.5495 8.3172-1.3767zm48.934 0.0668c0.75725 1.1396-1.5265 0.23411 0 0zm-60.697 0.0663c0.96779 1.2502-1.6287 0.0536 0 0zm58.99 0.091c-5.168 3.4634-12.317 23.116-16.8 11.545-6.8538 4.5402-2.2225 18.73-15.023 17.338-10.16 2.9513-33.694-9.2775-16.516-17.335 14.94-0.83254 30.072-4.5901 44.297-9.5736l2.0184-0.99291zm-60.91 0.10288c1.9825-0.99191-0.0399 1.2914 0 0zm0.2704 1.1554c2.3417 1.6418-2.6037 1.4686 0 0zm33.651 0.10391c2.491 0.46309-1.916 1.5676 0 0zm-15.15 9e-3c2.1077 1.3189-3.2389 0.30741 0 0zm43.628 0.0728c1.6523 0.23791-0.87031 1.2408 0 0zm-63.728 0.13789c0.97135 1.3076-1.7861 0.16825 0 0zm33.252 0.0485c2.2042-0.57481-0.46023 1.8482 0 0zm-31.939 1.2982c1.4515 2.0421-1.4516 3.8251 0 0zm34.181 0.19391c2.1086 2.0312-1.9883 1.1754 0 0zm-1.8002 0.0312c1.643 2.5663-1.9988 2.1711 0 0zm-16.056 0.32373c-1.0003 0.86844 0.68575 1.5529 0 0zm41.092 1.4107c1.3342 1.1249-1.9224 0.34723 0 0zm-40.352 1.6095c2.2591 1.61-2.4644 1.234 0 0zm-27.172 0.1255c1.7553 0.93331-2.0802 0.96693 0 0zm-1.3902 0.2257c0.96121 0.97205-1.6872 0.0948 0 0zm18.948 0.66955c-1.3972 1.2702 1.9968 0.51299 0 0zm48.564 0.89739c0.66288 1.2775-1.5992 0.0413 0 0zm-39.254 5.4e-4c1.2718 1.0003-1.1931 1.3401 0 0zm42.188 0.20952c1.5039 0.36245-1.2247 0.74527 0 0zm-70.59 0.0415c1.6054-0.15756-0.41244 1.3648 0 0zm68.823 0.15836c1.2159 0.50546-1.2002 0.57381 0 0zm3.5034 1.0331c2.0086 1.2643-1.4726 1.8008 0 0zm-3.2756 0.44708c2.3533 0.35862-1.3899 1.3636 0 0zm-42.457 0.0754c1.8517-0.0998-0.73756 1.2171 0 0zm38.81 0.10069c1.4088-0.0745-0.40348 1.4316 0 0zm3.8147 0.98628c1.1331 0.9332-1.0554 1.7314 0 0zm1.9526 0.19392c0.60773 1.6433-1.9985 0.45394 0 0zm-13.317 0.19122c-0.65556 1.3039 1.2885 0.89938 0 0zm6.2015 0.049-0.0889 0.65653zm4.8193 1.7302c5.4022 9.9387 3.9793 28.129-10.535 26.824-4.8534 3.1291-5.0481 14.482-0.40853 4.6406 13.535-7.8818 6.1133 12.559-2.0232 8.5724 4.3416 7.5048-19.547 6.6651-8.9718-2.9267 4.2238-13.228 7.9153-28.766 20.973-36.094 0.32169-0.33867 0.64337-0.67735 0.96506-1.016zm-68.249 0.76328c-4.5039 1.8853 2.1762 0.77247 0 0zm63.44 2.502c1.5947 1.0161-1.7751 1.2674 0 0zm10.539 0.10774c0.64504 1.4744-1.8432-0.25241 0 0zm-15.746 0.35981c1.2774 0.99139-1.8172 0.8009 0 0zm-39.761 1.0859c-2.5396 1.092 3.0476 3.382 0 0zm43.478 0.54189c1.6936 0.98235-2.4785 0.69094 0 0zm-5.0342 0.17506c2.4691 1.5352-2.0935 0.62235 0 0zm3.2976 1.5987c1.8238 1.2949-2.0874 0.84599 0 0zm-5.2448 0.0463c3.5825-0.28137-2.3316 2.2092 0 0zm0.15298 1.9397c0.93735 1.1305-1.5044-0.0319 0 0zm4.2413 0.1616c-2.1424-0.15971 0.51664 1.5905 0 0zm-40.938 0.77082c1.2159 0.5036-1.1996 0.57554 0 0zm-22.146 1.0644c0.67076 1.2297-1.4569-0.0447 0 0zm2.9136 0.33289c-2.2198 1.1265 1.8373 1.0971 0 0zm7.944 0.0254c-2.1706 0.45797 1.4792 1.259 0 0zm49.229 0.13466c-3.4194-0.74763 0.36411 1.9082 0 0zm-50.899 1e-3c-1.3324 0.83182 1.8605 0.44433 0 0zm48.412 1.8384c-1.4697 0.59973 0.72785 0.96722 0 0zm-54.689 0.30973c2.5306 0.80146-1.7944 2.1294 0 0zm30.57 0.45085c1.9708 0.7173-2.0795 1.0426 0 0zm-1.7237 0.0884c1.7354 1.1618-1.7767 0.80516 0 0zm-3.4668 6e-3c0.93763 0.85701-1.2306 0.31106 0 0zm1.6924 0.24348c1.713-0.0166-0.64559 1.1153 0 0zm49.53 0.47025c-1.2584 0.66742 1.012 0.83218 0 0zm-52.804 0.19067c1.2393 0.0156-0.77427 0.94831 0 0zm24.99 0.34043c2.3941 1.0293-1.5981 2.4451 0 0zm-48.167 4e-3c0.92731 1.2292-2.0765-0.19296 0 0zm24.237 0.4514c5.184-0.23148 1.0979 2.4021 0 0zm-16.112 0.2063c1.1244 1.8345-2.3637-0.0427 0 0zm-6.8059 0.0544c2.3567 0.32581-1.6167 1.3592 0 0zm30.067 0.0765c1.5656 0.15692-1.0061 1.2183 0 0zm-22.087 0.0157c1.851-0.32381-0.64421 1.5108 0 0zm-9.3542 0.26555c2.21 0.44731-2.6656 0.64349 0 0zm76.22 0.77028c-1.2148 0.50713 1.2006 0.57102 0 0zm-66.278 0.70564c0.69125 1.4174-1.6568-0.53774 0 0zm42.887 1.8233c-0.95353 0.69941 0.68806 1.4219 0 0zm-46.521 0.21763-0.77321 1.991zm-0.20199 1.9892c-1.543 1.1739 1.5003 0.77168 0 0zm2.146 1.247c1.443 1.171-2.7229-0.10731 0 0zm58.391 1.2179c2.7132 0.27964-1.538 2.143 0 0zm-6.5015 1.7237c1.7779 0.42777-1.2974 1.4442 0 0zm7.0531 0.0705c2.0929 1.1685-2.1961 0.89786 0 0zm-3.1958 0.10018c2.863 1.6035-1.7939 0.8357 0 0zm-1.8648 0.16105c1.2272 0.69799-1.3116 0.32968 0 0zm4.9298 1.6111c1.4178 0.45493-1.2402 0.85057 0 0zm-6.5252 2e-3c1.015 1.1801-1.4256 0.94717 0 0zm-3.3316 0.0129c1.5269 1.3954-1.9658 0.70204 0 0zm1.6305 0.0932c1.7354 0.65409-1.1282 1.033 0 0zm6.487 0.0705c1.5527-0.0964-0.42851 1.0583 0 0zm-60.345 0.58443c1.5904-0.21969-0.73776 0.84642 0 0zm52.29 0.92811c1.1435 1.9877-2.1352-0.38206 0 0zm-52.507 0.46486c2.7214 0.81781-2.3134 1.2147 0 0zm-1.4576 0.17183c1.8997 0.86776-1.4175 1.0795 0 0zm51.435 0.74549c2.1746-0.107-0.31892 2.1777 0 0zm2.3787 0.33881c2.171 1.0286-1.9523 0.77229 0 0zm13.33 0.34742c1.3009 0.64982-1.1046 1.2185 0 0zm-67.476 0.28334c1.5997 0.53679-1.5359 0.78521 0 0zm2.0646 0.31188c-2.188 1.8888 4.7606 0.82645 0 0zm66.632 0.8139c-1.485 0.10264 0.61202 1.0644 0 0zm-16.1 0.0754c1.3444 1.0817-1.7824 0.33705 0 0zm-2.1395 1.7382c1.3189 1.8436-2.6378 1.3054 0 0zm-48.455 0.20145c1.6601 2.1475-2.6807-0.30428 0 0zm-3.6106 0.21061c1.4028 0.89267-1.8528 0.45204 0 0zm65.892 1.7361c1.3482 1.0468-1.7328 0.14875 0 0zm-65.677 0.0378c0.78691 1.9474-2.5395-0.49538 0 0zm40.335 0.0474c0.6247 1.115-1.2743 1.2379 0 0zm10.859 0.25424c-1.423 1.5015 1.9929 1.4888 0 0zm-51.496 1.1032c2.7612 1.1273-1.8159 1.8991 0 0zm35.423 0.16859c2.3788 0.67893-1.7267 1.8497 0 0zm2.0382 9e-3c2.0505 2.118-2.3359 0.3543 0 0zm-34.11 0.1546c3.996-0.0343-1.7244 1.583 0 0zm60.957 0.0248c1.3525 0.89441-1.315 0.93745 0 0zm-11.256 0.3485c-1.1788 1.8532 2.4455 1.5567 0 0zm0.43147 0.22031 0.75758 1.0426zm-1.5282 0.20468c-2.233 0.43169 2.9899 2.0029 0 0zm-53.537 0.76921c4.1038-1.9685 1.1532 2.8706 0 0zm62.351 0.34096c1.2672 1.089-1.8285 0.59191 0 0zm-1.63 0.19123c2.1397 1.2664-1.9408 2.7587 0 0zm6.062 0.0673c-1.7851 0.0351 0.0191 1.5763 0 0zm-31.235 1.1791c12.546 1.0296-8.3843 20.929-4.0826 4.2094 0.5209-1.957 2.0114-3.7925 4.0826-4.2094zm26.701 0.0706c1.683 0.93888-1.7241 0.88609 0 0zm-3.1436 0.2688c1.811 0.43346-1.5833 0.78532 0 0zm-51.349 0.45515c-1.9834 0.85164 1.2306 1.3405 0 0zm49.283 1.0008c1.8564 0.0309-1.0782 1.5921 0 0zm1.7819 0.15351c1.3789 0.69659-1.4915 0.90355 0 0zm-3.3025 0.14436c1.6844 0.41612-1.1811 0.95328 0 0zm-48.501 0.3108c0.38474 4.1736 4.5132 2.0354 0 0zm-2.8112 0.0296c-0.71454 1.0875 1.3027 0.6917 0 0zm-5.8239 1.9747c-4.2198 0.48252 2.2952 2.7218 0 0zm2.5209 0.0949c-2.2408 2.2023 3.3332 4.2473 0 0zm27.812 0.78103c0.75031 1.1455-1.5289 0.3516 0 0zm22.283 0.20039c0.71716 2.3075-2.1178-0.45651 0 0zm-7.1113 0.13682c0.88157 0.84221-1.5055 0.1756 0 0zm5.1296 0.17829c0.59957 1.3739-1.7279-0.42067 0 0zm-39.922 0.1352c-0.66489 3.072 3.4762-0.41984 0 0zm-2.0894 0.23539c-1.4745 2.0898 4.436-0.99845 0 0zm-9.7965 0.0378c-1.551 4.8764 6.999 1.6103 0 0zm31.496 0.93672c2.0402 0.51518-1.1626 0.73924 0 0zm-21.005 0.12335c-0.75783 3.3063 2.5061 0.52211 0 0zm22.633 0.0243c1.4529-0.89048-0.0635 1.4078 0 0zm14.594 0.0107c-3.4358-0.34189 2.157 2.1166 0 0zm-34.759 0.60544c-3.2866-0.82699 0.63432 2.2977 0 0zm0.9324 0.28065c-2.0337 3.6314 4.336 1.7209 0 0zm17.265 0.51817c2.0702 0.68661-1.3814 1.892 0 0zm2.0097 0.202c2.4067 0.66211-1.3617 1.5417 0 0zm-21.344 0.25424c-2.0899 1.0886 2.0944 2.3256 0 0zm2.013 1.6537c-2.818 6.0946 7.3106 0.23869 0 0zm-2.1541 0.83058c-0.6602 1.6617 2.3229 0.25115 0 0zm21.101 0.8845c2.5746 0.87361-1.0433 3.994 0 0zm2.1821 1.8987c0.66874 1.1895-1.9939-0.2941 0 0zm-19.559 0.18476-0.14671 0.6177zm-15.63 1.9257c-0.90276 1.3307 0.87453 0.89119 0 0zm2.954 5.6865c-1.8878 1.1289 1.6669 0.5797 0 0zm1.1662 0.99759c2.1904 0.41585-1.0015 1.5378 0 0z" fill="#fff" stroke-width=".17904"/>
</svg>
